<?xml version="1.0" encoding="UTF-8" standalone="no"?>
<!-- Created with Inkscape (http://www.inkscape.org/) -->

<svg
   version="1.1"
   id="svg1"
   width="1536"
   height="1536"
   viewBox="0 0 1536 1536"
   sodipodi:docname="icon.jpg"
   inkscape:export-filename="icon.svg"
   inkscape:export-xdpi="300"
   inkscape:export-ydpi="300"
   xmlns:inkscape="http://www.inkscape.org/namespaces/inkscape"
   xmlns:sodipodi="http://sodipodi.sourceforge.net/DTD/sodipodi-0.dtd"
   xmlns="http://www.w3.org/2000/svg"
   xmlns:svg="http://www.w3.org/2000/svg">
  <defs
     id="defs1" />
  <sodipodi:namedview
     id="namedview1"
     pagecolor="#505050"
     bordercolor="#eeeeee"
     borderopacity="1"
     inkscape:showpageshadow="0"
     inkscape:pageopacity="0"
     inkscape:pagecheckerboard="0"
     inkscape:deskcolor="#505050">
    <inkscape:page
       x="0"
       y="0"
       width="1536"
       height="1536"
       id="page2"
       margin="0"
       bleed="0" />
  </sodipodi:namedview>
  <g
     inkscape:groupmode="layer"
     inkscape:label="Image"
     id="g1">
    <rect
       style="fill:#0a192f;fill-opacity:1;fill-rule:evenodd;stroke:#000000;stroke-width:1.00032"
       id="rect1"
       width="1531.692"
       height="1535.1548"
       x="3.9596682"
       y="1.8021443" />
    <path
       style="fill:#00f3ff;fill-opacity:1"
       d="m 499.513,1312.7058 c -8.67322,-2.0322 -18.14449,-7.6228 -24.30619,-14.3473 -13.20209,-14.4077 -17.75162,-30.9787 -13.7347,-50.0267 5.2941,-25.1042 25.73309,-41.5 51.7339,-41.5 10.81493,0 17.1821,1.5867 27.03915,6.7381 9.34949,4.8861 16.79299,12.4762 21.06698,21.4818 4.3059,9.0728 5.64905,15.4269 5.64905,26.724 0,24.5553 -15.10571,44.4464 -38.5,50.6965 -5.62309,1.5023 -22.93725,1.642 -28.94819,0.2336 z m 24.83493,-20.9175 c 6.47009,-2.4208 13.06271,-8.4577 15.66793,-14.3472 1.02263,-2.3118 2.37898,-7.3499 3.0141,-11.1957 0.97517,-5.9049 0.89753,-7.9965 -0.49922,-13.4486 -3.42038,-13.351 -10.40386,-21.4074 -21.303,-24.5759 -14.15765,-4.1157 -27.81656,2.7187 -34.53761,17.2814 -1.83469,3.9753 -2.22894,6.5983 -2.22894,14.8295 0,8.7004 0.34048,10.726 2.61982,15.5865 7.01194,14.9522 22.30905,21.4664 37.26692,15.87 z m 93.61326,19.7677 c -19.02809,-6.5111 -31.7205,-21.2238 -35.56345,-41.2242 -2.594,-13.5003 0.20164,-27.2747 8.14298,-40.1213 9.22381,-14.9213 25.86679,-23.3995 45.85197,-23.3576 11.38288,0.024 19.84061,2.3782 28.49625,7.9325 5.73386,3.6794 14.07225,12.2867 14.07225,14.526 0,0.8674 -3.78289,4.0057 -8.48368,7.0382 l -8.48368,5.4729 -4.22617,-4.5848 c -13.56864,-14.7203 -36.4499,-13.0755 -46.8792,3.3698 -3.95539,6.237 -5.22519,11.194 -5.18077,20.2243 0.0661,13.4383 5.71725,23.6178 16.3947,29.5319 4.79179,2.654 6.25817,2.9632 13.8588,2.9222 6.68881,-0.036 9.35233,-0.4994 12.5,-2.1739 4.15542,-2.2105 11.5,-8.8489 11.5,-10.3942 0,-0.4873 0.64045,-0.886 1.42322,-0.886 2.13988,0 16.6648,8.0658 17.24427,9.5759 1.28853,3.3578 -9.64757,14.9114 -18.16749,19.1932 -11.6064,5.833 -30.29249,7.1323 -42.5,2.9551 z m 346.20581,0.7192 c -12.77427,-3.4384 -23.23172,-11.0181 -30.01119,-21.7527 -15.98278,-25.3069 -9.6899,-59.0603 13.85006,-74.2882 17.67781,-11.4357 38.59587,-12.6828 56.95533,-3.3954 25.599,12.9496 35.0884,47.1571 20.6613,74.4799 -6.2642,11.8634 -18.6729,21.4577 -32.3645,25.0239 -7.13066,1.8573 -22.06867,1.8226 -29.091,-0.067 z m 28.51844,-22.0125 c 13.43216,-6.5635 19.55526,-24.2751 14.33446,-41.4634 -1.8883,-6.2171 -3.0539,-8.1227 -7.98278,-13.0516 -4.62142,-4.6214 -6.93344,-6.1093 -11.60187,-7.4665 -11.13795,-3.2379 -23.97807,0.2783 -30.04037,8.2264 -13.52639,17.734 -9.6928,44.2556 7.78381,53.8501 7.47856,4.1056 18.99148,4.0659 27.50675,-0.095 z m 90.27576,21.2933 c -13.4053,-4.5871 -22.8774,-12.2799 -29.2491,-23.7551 -5.206,-9.3757 -7.1191,-16.8335 -7.1745,-27.9691 -0.1116,-22.4408 11.7361,-40.4464 32.3486,-49.162 6.3443,-2.6826 9.1854,-3.2745 17.4872,-3.6433 17.9456,-0.7972 29.4511,3.4428 41.1863,15.178 7.8527,7.8527 11.1104,13.5165 13.8544,24.0874 1.7672,6.8078 2.0129,18.7547 0.5483,26.6534 -2.2098,11.9174 -12.1205,26.8277 -22.0012,33.0999 -12.1609,7.7197 -33.3009,10.1984 -47,5.5108 z m 29.5513,-20.4933 c 11.0041,-5.6192 16.7006,-15.9309 16.7006,-30.2309 0,-14.7261 -6.4424,-26.2545 -17.2762,-30.9151 -17.7968,-7.656 -35.5153,1.2714 -40.4394,20.3752 -2.0823,8.0783 -1.9317,14.0491 0.5576,22.1085 1.7362,5.6213 3.076,7.7613 7.8443,12.5296 4.0793,4.0793 7.1762,6.2057 10.6562,7.3168 6.5181,2.0811 16.6306,1.5357 21.9569,-1.1841 z m 91.4487,21.396 c -15.8086,-4.6161 -28.5731,-17.2948 -33.8592,-33.6317 -3.4589,-10.6897 -3.0911,-27.4522 0.864,-39.3724 5.0876,-15.3338 16.9014,-26.3419 33.425,-31.1454 8.6343,-2.5101 23.0646,-1.6946 31.0702,1.7558 3.3,1.4223 7.6875,4.0021 9.75,5.7328 3.6946,3.1005 3.7517,3.1129 3.8653,0.8405 0.063,-1.2686 0.22,-2.7565 0.3477,-3.3065 0.1278,-0.55 0.3009,-11.2375 0.3847,-23.75 l 0.1523,-22.75 h 11.5 11.5 v 73 73 h -11 -11 l -0.014,-3.75 c -0.01,-2.0625 -0.2933,-4.7944 -0.6351,-6.0709 -0.6159,-2.2997 -0.6548,-2.2887 -4.2364,1.1977 -1.9881,1.9353 -6.3148,4.7535 -9.6148,6.2628 -5.1911,2.3741 -7.4829,2.7816 -17,3.0227 -6.9469,0.1759 -12.6581,-0.2056 -15.5,-1.0354 z m 29.9715,-22.4022 c 6.6651,-3.3624 12.4008,-10.4536 14.6668,-18.1333 3.738,-12.6687 -0.3442,-29.9792 -8.8906,-37.7004 -5.7037,-5.1529 -10.0594,-6.731 -18.8159,-6.8168 -6.5289,-0.064 -8.3704,0.3378 -13.4097,2.9258 -10.7653,5.5288 -16.1034,16.819 -15.3199,32.4017 0.6521,12.9692 4.7607,20.7825 14.0551,26.7288 7.9333,5.0755 18.3867,5.2996 27.7142,0.5942 z M 274.96119,1244.284 c 0,-54.0577 0.26286,-68.4669 1.25,-68.5222 0.6875,-0.039 18.28502,-0.01 39.1056,0.065 34.27109,0.1224 38.44423,0.317 44.07213,2.0553 8.89279,2.7467 17.52557,8.6409 21.30626,14.5472 4.55911,7.1224 5.41537,10.03 5.41987,18.4039 0.006,10.5863 -2.87979,17.8549 -9.85837,24.8334 -2.96832,2.9684 -5.26161,5.4662 -5.09621,5.5509 0.16539,0.085 2.87699,1.8795 6.02576,3.9886 10.02974,6.7181 14.77496,16.6058 14.77496,30.7869 0,11.9336 -4.30497,20.956 -13.06855,27.389 -10.87389,7.9822 -22.27788,9.5128 -70.18145,9.4198 l -33.75,-0.066 z m 79.98583,46.2075 c 5.37746,-2.0827 9.7606,-5.9914 11.63733,-10.3776 2.99525,-7.0003 0.55758,-17.635 -5.05411,-22.0491 -5.96075,-4.6887 -10.40951,-5.2879 -37.13092,-5.0009 l -24.93813,0.2679 -0.2734,18.4678 c -0.15037,10.1573 -0.0389,19.079 0.24771,19.8258 0.84864,2.2116 49.43622,1.219 55.51152,-1.1339 z m -2.7217,-60.5057 c 12.79911,-6.3028 13.0536,-25.0043 0.43418,-31.9051 -2.75723,-1.5077 -6.68058,-1.792 -28.44831,-2.0613 l -25.25,-0.3124 v 17.8957 c 0,9.8427 0.32855,18.2243 0.7301,18.6259 0.40156,0.4015 11.31406,0.589 24.25,0.4166 22.3222,-0.2974 23.7625,-0.4329 28.28403,-2.6594 z m 62.73587,9.846 v -73 h 11.5 11.5 v 73 73 h -11.5 -11.5 z m 283,0 v -73.0635 l 11.75,0.2818 11.75,0.2817 v 42.6641 c 0,23.4653 0.313,42.9783 0.69556,43.3623 0.38256,0.3839 10.95756,-9.7054 23.5,-22.4208 l 22.80444,-23.1188 14.41667,0.01 c 7.92916,0 14.07536,0.3441 13.65821,0.7566 -6.17022,6.1015 -38.25281,39.7729 -39.24265,41.1861 -1.22357,1.7469 0.68734,4.6435 21.16137,32.0774 12.37852,16.5864 22.5064,30.3437 22.5064,30.5718 0,0.2281 -6.4125,0.3929 -14.25,0.3662 l -14.25,-0.048 -16.85959,-22.4516 c -9.27277,-12.3521 -17.21797,-22.4553 -17.65601,-22.4553 -0.43803,0 -4.20545,3.755 -8.37204,8.3444 l -7.57561,8.3444 -0.41405,13.9056 -0.41406,13.9056 -11.60432,0.2817 -11.60432,0.2818 z m 119.83825,14.25 c -0.18604,-32.3125 -0.19507,-63.1289 -0.0201,-68.4808 l 0.31817,-9.7308 46.93446,-0.2692 c 25.81396,-0.1481 47.38328,-0.1192 47.93183,0.064 0.5737,0.1918 0.99737,4.5459 0.99737,10.25 v 9.9168 l -17.75,0.032 c -9.7625,0.017 -25.85,0.13 -35.75,0.25 l -18,0.2182 -0.27029,20.75 -0.27029,20.75 h 32.02031 32.02029 v 10.5 10.5 h -32 -32 v 27 27 h -11.91175 -11.91175 z m 51.66175,-162.3957 c -12.7657,-0.9158 -25.04927,-4.2055 -45.74802,-12.2516 -10.78306,-4.1917 -25.29733,-8.3502 -35.25198,-10.1002 -6.59469,-1.1593 -24.48848,-0.6546 -32.5,0.9167 -9.52911,1.8689 -18.53042,4.6648 -32.94097,10.2321 -6.29253,2.431 -16.64253,5.8157 -23,7.5216 -10.1334,2.719 -13.59406,3.1555 -28.05903,3.5384 -15.86987,0.4201 -16.95814,0.3197 -28.49627,-2.6307 -23.79652,-6.085 -43.16104,-17.7468 -70.37152,-42.3796 -30.73754,-27.8256 -60.28528,-65.96966 -84.03043,-108.47733 -21.75211,-38.93981 -35.79286,-73.10815 -45.08859,-109.72365 -9.91968,-39.07322 -12.36661,-58.21063 -12.4025,-97 -0.0325,-35.17868 2.38315,-55.56915 9.77391,-82.5 12.19656,-44.44245 31.54463,-76.91818 62.97039,-105.69576 26.99935,-24.72417 68.61599,-42.07109 108.24193,-45.11811 32.52774,-2.5012 61.36786,2.67097 106.40308,19.08225 19.53234,7.11777 21.84598,8.26979 22.59398,11.25006 1.05472,4.20231 -0.78269,8.68766 -4.43195,10.81894 l -3.28667,1.91952 -7.68768,-3.59618 c -15.2797,-7.14759 -45.0991,-17.17598 -56.84912,-19.11859 l -4.16145,-0.688 -0.42185,6.82293 c -0.23201,3.75262 -0.30479,42.31776 -0.16173,85.70032 0.14306,43.38256 -0.11053,79.83256 -0.56353,81 -0.45301,1.16744 -8.07007,9.31756 -16.92682,18.11137 l -16.10318,15.98875 v 171.52856 171.52852 l 5.75,2.2701 c 7.20205,2.8433 15.9506,5.1614 16.68974,4.4222 0.30814,-0.3081 0.56026,-26.3487 0.56026,-57.8679 v -57.30762 l -2.75,-1.4364 c -9.60155,-5.01517 -12.87743,-17.71071 -6.48273,-25.12357 4.17892,-4.84429 7.40637,-6.49139 12.71971,-6.49139 12.62835,0 20.17399,12.63891 14.32839,24 -1.31212,2.55016 -3.9437,5.54975 -6.07336,6.92271 l -3.75798,2.42271 0.25798,58.07726 0.25799,58.0773 6.27773,0.2984 c 11.8753,0.5646 29.70107,-3.5977 60.84646,-14.2076 16.9882,-5.7871 24.28266,-7.6619 32.87581,-8.4493 l 7,-0.6415 0.26002,-46.9612 0.26003,-46.96128 -40.01003,-40.05511 -40.01002,-40.05512 V 747.20032 615.10154 l 2.17144,-2.88486 c 1.19429,-1.58667 16.69788,-17.50986 34.45241,-35.38486 37.18905,-37.44139 40.17397,-40.63614 41.04177,-43.92691 0.352,-1.3348 0.011,-11.6848 -0.75766,-23 -1.64143,-24.16141 -1.64832,-59.43817 -0.0144,-73.49393 4.6205,-39.74662 20.23205,-77.08941 43.43094,-103.8867 11.14765,-12.87678 29.23342,-26.55761 47.20361,-35.70679 28.0603,-14.28635 67.62367,-22.98567 104.53587,-22.98567 14.18443,0 16.89359,0.24394 18.03921,1.62433 1.04404,1.258 1.34528,6.72708 1.33571,24.25 -0.0162,29.62328 -3.16009,50.71915 -11.34497,76.12567 -3.5772,11.10392 -14.11112,33.14959 -20.15876,42.18878 -9.58167,14.3214 -23.08872,28.22002 -37.36508,38.44828 -9.90956,7.09967 -30.12146,17.72031 -41.40631,21.75756 -21.49734,7.69084 -47.10107,12.32745 -73.41378,13.29459 l -16.75,0.61566 v 21.33684 21.33684 l -41.5103,41.65776 -41.51031,41.65777 -0.0176,128.60296 -0.0176,128.60296 39.77789,39.09166 39.77789,39.09166 0.5,49.07596 c 0.275,26.9918 0.77544,49.351 1.11208,49.6871 0.33665,0.3361 4.83665,1.2794 10,2.0963 5.16336,0.8168 10.62542,1.7564 12.13792,2.0878 l 2.75,0.6027 v -57.40182 -57.4018 l -40,-39.9701 -40,-39.97011 V 841.7765 c 0,-14.64586 0.34455,-20.88923 1.2,-21.74468 1.71444,-1.71444 5.47764,-1.48244 6.19301,0.38179 0.33385,0.86998 0.60699,9.76106 0.60699,19.75794 v 18.17616 l 40.5,40.47177 40.5,40.47177 v 60.27028 c 0,33.14867 0.1167,60.27027 0.25933,60.27027 0.14263,0 7.68013,2.5007 16.75,5.5571 26.25373,8.8471 35.28115,10.7869 49.99067,10.7421 10.22199,-0.031 14.32241,-0.5183 22.5,-2.6726 25.44716,-6.7039 50.78727,-24.0589 79.00065,-54.1062 10.81421,-11.5171 29.49939,-33.65428 29.49939,-34.9492 0,-0.31415 -24.03056,-0.57118 -53.40123,-0.57118 h -53.40123 l -2.02162,3.42639 c -5.71231,9.68166 -19.5008,9.98699 -25.92593,0.57412 -4.44047,-6.50534 -1.47899,-18.49307 5.37616,-21.76206 l 3.37384,-1.60887 v -29.5773 -29.5773 l -10.92943,-11.48749 -10.92942,-11.48749 h -7.98521 c -7.13611,0 -8.27022,-0.26583 -10.66559,-2.5 -7.4186,-6.91935 -7.44892,-17.04501 -0.0717,-23.93718 3.68406,-3.44183 12.71792,-4.02901 17.34046,-1.1271 5.55037,3.48438 7.43972,7.56784 6.90996,14.93455 l -0.4581,6.37027 11.24075,11.12973 c 6.18242,6.12135 11.75994,12.11265 12.3945,13.31399 0.7995,1.5136 1.15375,11.65287 1.15375,33.02259 v 30.83834 l 3.45544,1.86088 c 1.9005,1.02348 4.61622,3.61493 6.03494,5.75876 l 2.5795,3.89788 55.99213,-0.10254 c 41.65703,-0.0763 56.24483,-0.40434 56.97923,-1.28135 0.5428,-0.64835 2.0287,-2.75382 3.302,-4.67882 1.2733,-1.925 4.4517,-6.5375 7.0632,-10.25 l 4.7481,-6.75 -47.82722,-0.006 c -29.53557,-0.003 -49.23685,-0.39706 -51.51282,-1.02919 -2.02702,-0.56299 -5.78066,-2.92298 -8.34141,-5.24442 -3.6527,-3.31136 -4.84229,-5.19042 -5.52095,-8.72081 -0.47577,-2.475 -0.88464,-26.44411 -0.90859,-53.2647 l -0.0435,-48.76428 -3.03411,-1.84515 c -1.66876,-1.01483 -4.62882,-3.70822 -6.57792,-5.9853 l -3.54382,-4.14015 h -43.69467 -43.69467 l -1.78806,3.32022 c -0.98343,1.82612 -3.22326,4.17062 -4.9774,5.21 -4.16113,2.46559 -12.41897,2.53219 -16.08558,0.12973 -8.7556,-5.73689 -8.86255,-20.51293 -0.18961,-26.19566 6.70087,-4.39058 17.39862,-1.94089 21.0383,4.81757 l 1.94538,3.61236 13.05108,0.30289 c 7.17809,0.16659 27.22495,0.30289 44.54856,0.30289 h 31.49748 l 1.92273,-3.58632 1.92273,-3.58631 -4.62986,-8.41369 c -2.54642,-4.62752 -7.01052,-12.01368 -9.92021,-16.41368 -5.26636,-7.96372 -5.31302,-8.00244 -10.29035,-8.53834 -8.99754,-0.96876 -13.5,-6.0368 -13.5,-15.1958 0,-4.80204 0.47449,-6.23392 3.29327,-9.93812 2.26485,-2.97627 4.40376,-4.60553 6.84933,-5.2173 4.60448,-1.15182 10.43968,-0.0282 12.96433,2.49649 2.59033,2.59033 3.35547,2.31722 19.8667,-7.09146 7.4395,-4.23929 16.67637,-9.42235 20.52637,-11.5179 23.82201,-12.9663 27.6165,-16.5136 22.32649,-20.87209 -1.27957,-1.05425 -15.07592,-8.22658 -30.65856,-15.93851 l -28.33206,-14.02168 -5.26785,2.66735 c -5.97945,3.02768 -8.23717,3.25026 -12.95852,1.27756 -6.94851,-2.90327 -10.18728,-9.43777 -8.66296,-17.47829 1.6271,-8.58267 9.85394,-13.30012 18.60265,-10.66714 l 4.33084,1.30339 17.65955,-17.51785 c 16.60338,-16.47014 17.59379,-17.66217 16.55999,-19.93113 -1.374,-3.0156 -1.44447,-10.31918 -0.0996,-10.31918 2.74574,0 -0.68439,-4.13721 -18.97302,-22.88407 -14.72918,-15.09824 -20.31575,-20.2191 -21.54382,-19.74784 -4.85251,1.86208 -9.10009,1.68509 -13.47509,-0.56148 -6.72651,-3.45407 -9.27171,-7.87477 -8.81272,-15.30661 0.61324,-9.92953 6.75608,-15.91612 16.33989,-15.92428 6.93358,-0.006 11.75777,3.09963 14.6674,9.44203 2.54213,5.5413 1.69587,5.20419 18.79736,7.48805 6.875,0.91814 23.3,3.20108 36.5,5.07319 l 24,3.40385 2.69055,-3.13243 c 4.32067,-5.03028 7.80223,-6.83655 13.19142,-6.84382 6.3692,-0.009 11.25505,2.9833 13.71415,8.39795 2.2654,4.98812 2.3757,8.53064 0.4119,13.23062 -0.8206,1.96401 -1.1581,4.1512 -0.75,4.86042 0.7869,1.36752 19.9502,25.06244 31.833,39.36066 l 7.091,8.53239 8.1025,0.0557 c 7.841,0.0539 8.2167,0.16631 11.6402,3.4836 4.3172,4.18333 5.9536,8.78329 5.3519,15.04482 -0.571,5.94341 -4.4597,11.28318 -9.7618,13.40465 -4.4174,1.7675 -3.9179,-0.1307 -6.4785,24.62262 -0.825,7.975 -2.6792,25.47306 -4.1205,38.88457 l -2.6205,24.38457 4.0864,3.61543 c 4.5561,4.03102 6.1183,7.37986 6.1183,13.11543 0,5.61851 -1.5649,9.08333 -5.72,12.66427 l -3.6716,3.16426 2.7509,15.83574 c 1.513,8.70965 3.5136,19.42904 4.4458,23.82087 l 1.6949,7.98514 4.5884,2.1784 c 7.0005,3.32364 9.9116,7.37092 9.9116,13.78016 0,6.26675 -2.6712,10.86831 -8,13.78108 -4.4814,2.44962 -11.937,1.95209 -16.0237,-1.06929 -1.5924,-1.17735 -3.2979,-2.14063 -3.79,-2.14063 -0.4921,0 -5.3478,2.65187 -10.7905,5.89305 -5.4427,3.24118 -16.8708,9.72949 -25.3958,14.41848 l -15.50002,8.52542 -0.64522,4.42857 c -1.44463,9.91536 -6.20515,14.73446 -14.55538,14.73446 -6.05932,0 -8.73628,-1.09003 -12.05112,-4.90712 -6.9191,-7.96742 -4.66778,-19.28741 4.7961,-24.11552 2.13177,-1.08755 5.46439,-1.97736 7.40583,-1.97736 3.34743,0 3.68294,-0.32303 6.49129,-6.25 1.62877,-3.4375 5.23051,-10.3 8.00387,-15.25 2.77335,-4.95 8.48195,-15.525 12.68565,-23.5 4.2038,-7.975 11.3998,-21.51934 15.9911,-30.09852 7.9767,-14.90502 9.8544,-19.55187 8.0661,-19.96174 -0.4465,-0.10233 -20.7754,9.83196 -45.17532,22.0762 l -44.36349,22.26226 -0.67947,5.1109 c -0.84851,6.38241 -3.50446,10.8437 -8.05345,13.52767 l -3.51893,2.07622 0.30122,50.48773 0.30122,50.48774 3.76627,3.76577 3.76627,3.76577 51.80068,0.3359 51.8007,0.33591 5.933,-10.76099 c 3.2632,-5.91855 6.0831,-11.13221 6.2664,-11.58591 0.1834,-0.4537 -21.497,-0.82491 -48.1786,-0.82491 -43.4425,0 -48.68163,-0.16977 -50.13651,-1.62465 -0.89355,-0.89355 -1.4882,-2.58105 -1.32143,-3.75 l 0.30322,-2.12535 52.00002,-0.26274 52,-0.26275 3.3773,-7.23725 c 14.4896,-31.05025 20.1712,-45.58734 27.166,-69.50801 5.8196,-19.90187 9.5725,-37.07475 12.5913,-57.61739 2.3814,-16.20512 2.6667,-21.11222 2.7106,-46.61186 0.054,-31.22629 -1.2504,-45.88889 -5.9515,-66.91689 -7.6116,-34.04628 -23.6864,-68.75073 -42.4206,-91.58311 -16.6854,-20.33543 -40.5867,-38.09566 -63.97312,-47.53608 -35.17902,-14.20078 -70.50485,-17.14187 -107.79305,-8.97442 -15.31005,3.35345 -38.56936,10.64024 -46.02832,14.41998 -3.36622,1.70579 -11.34972,9.17712 -26.98783,25.25645 -12.21413,12.55874 -34.2102,34.84364 -48.88017,49.522 l -26.67266,26.68793 0.0806,50.81207 0.0806,50.81207 4.23918,3.10787 c 5.47604,4.01465 6.8828,6.69398 6.92624,13.19179 0.0663,9.91704 -5.96852,16.41919 -15.36519,16.55501 -9.56921,0.13832 -16.5994,-6.76739 -16.5994,-16.30546 0,-5.47 1.99435,-9.09125 7.48448,-13.59001 l 4.51552,-3.70012 v -51.44528 c 0,-36.78976 0.32686,-52.05602 1.14737,-53.58917 0.63106,-1.17914 2.99356,-3.97478 5.25,-6.21253 22.94039,-22.75032 81.60263,-82.6398 81.60263,-83.30978 0,-0.4754 -1.13714,-1.47294 -2.52698,-2.21676 -4.50368,-2.4103 -4.5402,-9.58498 -0.0637,-12.51808 3.17236,-2.07861 31.86453,-12.54851 48.0878,-17.54745 52.27141,-16.1066 101.40411,-13.19843 146.1139,8.6485 23.2847,11.37783 42.6677,26.35496 58.5421,45.2352 18.5514,22.06409 31.3258,45.51009 40.3593,74.07506 10.9447,34.60836 13.9476,55.58185 13.9057,97.12121 -0.037,36.622 -3.3445,62.26337 -12.5121,97 -12.7676,48.37703 -35.9617,98.69704 -66.1437,143.5 -26.1919,38.87998 -63.12003,77.88308 -91.84551,97.00638 -25.446,16.9401 -48.41529,23.3568 -76.41678,21.3479 z m -247.28797,-198.84347 0.28797,-169.98919 16.73945,-16.76097 16.73945,-16.76097 0.0629,-66.49984 c 0.10494,-110.93842 0.16738,-106.70559 -1.58402,-107.37766 -0.84822,-0.3255 -6.47322,-0.89129 -12.5,-1.25734 l -10.95778,-0.66552 v 63.58635 63.58636 l 3.88211,2.18187 c 5.1139,2.87417 8.11789,8.30806 8.11789,14.68437 0,12.46618 -14.1438,20.68281 -24.07832,13.98793 -5.33402,-3.59459 -7.92227,-8.21154 -7.91794,-14.12408 0.005,-6.28006 2.47346,-10.66601 7.69571,-13.67148 l 3.80055,-2.18726 -0.27572,-59.62169 c -0.15165,-32.79193 -0.26415,-61.60157 -0.25,-64.02143 l 0.0257,-4.39975 -8.75,0.62289 c -4.8125,0.34259 -10.2125,0.91622 -12,1.27474 l -3.24998,0.65186 v 50.97387 c 0,46.01233 -0.16652,51.32925 -1.71081,54.625 -1.04542,2.23108 -18.54748,20.35963 -45,46.61079 l -43.28919,42.95965 v 49.20879 49.20878 l 3.45778,2.13702 c 6.08478,3.76061 8.54222,7.54896 8.54222,13.16857 0,5.70481 -0.98169,8.02832 -5.33489,12.62685 -5.69533,6.01631 -14.83487,6.32449 -21.48993,0.72463 -4.09094,-3.4423 -5.50647,-7.48544 -4.95384,-14.14946 0.44264,-5.33764 0.77647,-5.93698 6.12341,-10.99375 l 5.65525,-5.34835 v -49.30692 -49.30691 l 2.25,-3.04214 c 1.2375,-1.67318 21.2625,-21.85702 44.5,-44.85298 l 42.25,-41.81084 v -50.8413 c 0,-27.96271 -0.19708,-50.8413 -0.43795,-50.8413 -2.01053,0 -15.13138,3.60973 -22.26016,6.12408 -25.66985,9.05388 -51.65275,27.31147 -69.55672,48.87592 -19.99562,24.08375 -33.68296,52.42176 -42.16469,87.29694 -14.61994,60.11429 -10.30315,124.25141 13.02808,193.56576 5.21453,15.49176 13.83055,36.67262 15.28295,37.57025 0.36764,0.22721 11.34245,-10.53971 24.38846,-23.9265 l 23.72003,-24.33961 v -54.71539 c 0,-52.42923 0.0811,-54.84566 1.94157,-57.83342 1.06786,-1.71491 8.30359,-9.17952 16.0794,-16.58801 l 14.13783,-13.46999 -0.61996,-6.53001 c -0.76952,-8.10521 1.14494,-12.45241 6.96116,-15.80682 5.35511,-3.08847 13.2865,-2.69057 17.13657,0.85971 8.37103,7.71923 6.81001,20.74856 -3.09703,25.84976 -4.35704,2.24347 -5.08436,2.33642 -9.35151,1.19513 l -4.62702,-1.23754 -15.39761,15.48663 -15.3976,15.48663 0.3671,55.48425 c 0.20191,30.51633 0.1421,55.72055 -0.1329,56.00937 -0.275,0.28881 -8.59048,8.76411 -18.47884,18.83399 -9.88836,10.06988 -21.48961,21.93209 -25.78056,26.36047 l -7.80171,8.05161 4.6438,9.80317 4.64381,9.80317 28.63675,-28.8813 c 15.75021,-15.88472 30.5799,-31.03006 32.95486,-33.65633 l 4.31811,-4.77502 -0.24836,-38.25228 c -0.13661,-21.03876 0.0843,-38.79056 0.4909,-39.44845 1.16577,-1.88626 5.43777,-1.4075 6.58606,0.73809 0.66409,1.24087 1.03518,16.27491 1.03518,41.9385 v 40.00423 l -34.5,34.4433 c -18.975,18.94382 -34.5,34.90385 -34.5,35.46674 0,1.09351 8.32308,14.93605 9.97205,16.58502 0.64663,0.64663 14.06529,-12.21557 39.06352,-37.44354 20.9432,-21.13568 38.95287,-39.5017 40.02149,-40.81337 1.86824,-2.29317 1.94294,-4.37707 1.94294,-54.20288 v -51.81801 l -3.94515,-3.17042 c -8.46642,-6.80379 -8.2672,-19.37092 0.38748,-24.4429 5.14454,-3.0149 9.34295,-3.14128 14.63674,-0.44059 5.29567,2.70165 7.91246,7.13766 7.91719,13.42134 0.004,4.72882 -0.25438,5.20189 -5.49626,10.08029 l -5.5,5.11862 v 54.14884 54.14883 l -22.75,22.83764 c -60.40247,60.63517 -60.68994,60.94312 -59.44327,63.67926 1.69973,3.73051 18.64006,27.75119 26.33472,37.34153 8.31414,10.36249 26.92142,31.18329 27.86804,31.18329 0.38255,0 5.03102,-4.3875 10.32994,-9.75 l 9.6344,-9.75 -0.002,-31.99998 c -0.001,-17.6 -0.33283,-32.45256 -0.73691,-33.00569 -0.40408,-0.55313 -2.35886,-2.21523 -4.34396,-3.69355 -12.135,-9.03707 -7.27968,-28.87545 7.47408,-30.53841 5.40835,-0.6096 10.43801,1.61011 14.73328,6.50215 2.92489,3.33127 3.08803,3.93587 2.73721,10.14442 -0.42523,7.52564 -2.19279,10.63753 -8.10696,14.27277 l -3.77166,2.31831 0.20691,33.6428 c 0.18375,29.87788 0.022,33.90658 -1.44513,35.99998 -0.90862,1.2965 -5.93064,6.8572 -11.16005,12.3572 l -9.508,10 5.72479,5.2603 c 13.62457,12.5193 33.5195,27.2397 36.8149,27.2397 1.10527,0 1.38305,-29.1174 1.6217,-169.98917 z m -65.69135,87.02265 c -0.3675,-0.59463 -0.92423,-9.79297 -1.23716,-20.44074 l -0.56897,-19.35958 2.77187,-1.8162 c 2.73117,-1.78953 2.79992,-1.78154 4.68285,0.54377 1.72517,2.1305 1.89846,3.99813 1.78221,19.20774 -0.15186,19.86724 -0.58426,22.21295 -4.17311,22.63886 -1.42422,0.16902 -2.89018,-0.17921 -3.25769,-0.77385 z m -84.63316,-179.669 c -0.74656,-0.89954 -1.40812,-2.13704 -1.47013,-2.75 -0.062,-0.61295 -0.1813,-25.01895 -0.26508,-54.23556 l -0.15231,-53.1211 -3.40507,-2.33319 c -4.63461,-3.17568 -6.59493,-6.85517 -6.59493,-12.37856 0,-5.38197 1.8568,-9.50165 5.61488,-12.45775 3.72973,-2.93381 13.38164,-2.93903 17.49584,-0.009 4.48019,3.19018 6.18537,7.33714 5.65361,13.74949 -0.46082,5.55688 -1.46125,6.95221 -9.51433,13.26989 -0.97268,0.76307 -1.25,13.05538 -1.25,55.40602 0,52.78533 -0.0583,54.45659 -1.93426,55.46058 -2.50246,1.33927 -2.57741,1.32851 -4.17822,-0.60036 z m 33.10351,-149.87526 c -0.93123,-1.12207 -1.25054,-7.85749 -1.24098,-26.17674 0.0118,-22.63838 0.16164,-24.77471 1.82254,-25.9892 2.32056,-1.69684 2.94278,-1.66504 4.85598,0.24817 1.34384,1.34384 1.57143,5.15281 1.57143,26.3 0,17.9 -0.33137,25.05994 -1.2,25.92857 -1.64708,1.64708 -4.30196,1.50503 -5.80897,-0.3108 z m 26.68283,0.25821 c -1.55883,-1.14294 -1.67923,-4.47185 -1.43759,-39.74741 l 0.26373,-38.5 2.5856,-0.30056 c 1.42207,-0.1653 3.11511,0.33747 3.7623,1.11729 0.86651,1.04408 1.10756,11.2405 0.9144,38.67891 -0.2561,36.38074 -0.31103,37.29341 -2.32471,38.63013 -1.66006,1.10198 -2.39431,1.12571 -3.76373,0.12164 z m 24.88284,-32.96992 c -2.30412,-3.28959 -2.04679,-11.2874 0.4433,-13.77749 4.18276,-4.18276 7,-1.77705 7,5.97749 0,5.77011 -1.90928,10.02251 -4.5,10.02251 -0.76263,0 -2.08711,-1.00013 -2.9433,-2.22251 z m 0.45044,-29.26888 c -0.86441,-1.04156 -1.27837,-6.64323 -1.37244,-18.57181 -0.12489,-15.83709 0.007,-17.18438 1.80643,-18.50861 2.45644,-1.80733 3.05404,-1.79017 4.98744,0.14324 1.30696,1.30696 1.57143,4.47099 1.57143,18.8 0,17.69474 -0.40173,19.62857 -4.07756,19.62857 -0.92265,0 -2.23454,-0.67113 -2.9153,-1.49139 z m 105.87906,360.74139 c 3.33184,-2.7663 3.75312,-7.41417 0.95617,-10.5492 -3.55519,-3.98492 -6.91063,-4.35569 -10.68404,-1.18058 -3.34668,2.81605 -3.89414,5.22972 -1.99499,8.79552 2.56373,4.81358 7.86203,6.13976 11.72286,2.93426 z m -61.4362,-22.33228 c 2.51665,-2.41763 2.56665,-8.13685 0.095,-10.86798 -2.44058,-2.69681 -8.57331,-2.78093 -10.95405,-0.15025 -3.33342,3.68339 -1.74713,11.30166 2.72441,13.08421 2.73326,1.0896 5.61046,0.35886 8.13463,-2.06598 z m 397.05,-61.39941 c 4.40001,-2.45106 15.75451,-8.63288 25.23221,-13.73739 15.9278,-8.57839 17.2335,-9.49152 17.25,-12.06304 0.025,-3.88954 2.6109,-9.67175 5.9114,-13.21788 l 2.7922,-3 -2.7194,-14.60733 c -1.4956,-8.03404 -3.2762,-18.53034 -3.9568,-23.32512 -2.0202,-14.23186 -3.8493,-13.36455 -14.3165,6.78866 -8.9991,17.3266 -24.6404,46.8535 -33.714,63.64379 -6.17707,11.4304 -7.13545,14.02326 -5.17009,13.98739 0.38004,-0.007 4.29098,-2.01802 8.69098,-4.46908 z M 509.5062,831.78208 c 2.87302,-3.17464 2.44292,-8.70373 -0.90077,-11.57985 -1.51567,-1.30373 -3.66529,-2.37041 -4.77693,-2.37041 -2.91845,0 -7.86731,5.32705 -7.86731,8.46853 0,6.25229 9.40358,10.05796 13.54501,5.48173 z m 448.04179,-34.54162 c 11.50226,-5.82525 31.12611,-15.73281 43.60861,-22.01679 12.4824,-6.28398 23.3949,-12.12501 24.25,-12.98007 0.8792,-0.87925 1.5546,-3.26361 1.5546,-5.48845 0,-3.57372 -0.4806,-4.29796 -5.25,-7.91195 -17.2461,-13.06808 -34.30453,-25.01138 -35.72338,-25.01138 -0.90441,0 -2.51788,0.66069 -3.5855,1.4682 -1.06762,0.8075 -3.39798,1.4825 -5.17859,1.5 -4.17285,0.041 -3.68779,-0.76148 -26.05924,43.11213 -13.8496,27.16105 -17.86587,35.8571 -16.97297,36.75 0.64332,0.64332 1.45623,1.16967 1.80647,1.16967 0.35024,0 10.04774,-4.76611 21.55,-10.59136 z m -25.13569,-7.65864 c 3.7233,-7.2875 12.29198,-24.05 19.0415,-37.25 12.1024,-23.66856 14.57418,-29.5 12.50424,-29.5 -1.56525,0 -14.02599,6.5587 -38.49685,20.2628 l -22,12.32038 -0.62709,5.09605 c -0.3449,2.80282 -1.39625,6.39812 -2.33633,7.98956 l -1.70924,2.89351 8.16397,13.46885 c 4.49018,7.40787 8.8144,14.48135 9.60938,15.71885 1.08439,1.68802 2.39896,2.25 5.2631,2.25 h 3.81768 z M 732.69876,758.30308 c 1.20042,-0.84081 2.47601,-3.0928 2.83463,-5.00441 1.24497,-6.63628 -4.32018,-11.05652 -10.62983,-8.44298 -5.6605,2.34466 -6.53111,7.54124 -2.01929,12.05305 3.2418,3.2418 6.5133,3.70658 9.81449,1.39434 z m 304.93544,-15.17996 c 2.5969,-1.69747 2.5984,-1.70649 5.8998,-33.2913 5.9941,-57.34779 5.9989,-57.52106 1.5542,-55.41737 -1.066,0.50455 -12.2182,10.1709 -24.7826,21.48076 -12.5644,11.30987 -24.38016,21.92538 -26.25719,23.59004 -3.3167,2.94144 -3.4065,3.22031 -3.19005,9.90637 0.1225,3.78385 0.73765,7.50019 1.36702,8.25853 0.98127,1.18236 29.43342,21.64661 36.73582,26.42225 2.6105,1.70726 5.0109,1.44453 8.673,-0.94928 z m -70.86049,-45.50936 c 0.35957,-3.1077 -20.23241,-67.05787 -22.08579,-68.58932 -0.6747,-0.55751 -2.91578,-1.32929 -4.98018,-1.71507 -3.7395,-0.69882 -3.81008,-0.64807 -19,13.66051 -19.10222,17.9939 -18.98307,17.86165 -18.31907,20.33283 0.29986,1.11601 0.55136,3.68004 0.55887,5.69785 l 0.0136,3.66875 30.25,15.05379 c 16.6375,8.27959 30.925,14.94981 31.75,14.82271 0.825,-0.1271 1.64063,-1.44652 1.81252,-2.93205 z m 30.68748,-11.46552 c 34.23591,-30.4363 42.56611,-38.53144 41.88921,-40.70707 -1.9817,-6.3696 -1.5967,-6.13387 -15.5526,-9.52202 -7.3352,-1.78078 -24.67951,-6.17352 -38.54306,-9.76166 l -25.20646,-6.52387 -3.04354,2.16719 c -1.95719,1.39364 -3.04355,3.03175 -3.04355,4.58932 0,2.34461 19.31848,64.22361 21.11344,67.62843 0.7774,1.47464 2.54802,2.00175 8.88656,2.64554 0.825,0.0838 6.9,-4.64835 13.5,-10.51586 z M 630.30387,664.72155 c 8.30803,-3.78539 4.26491,-16.87551 -4.68393,-15.16483 -4.09726,0.78324 -6.96117,5.01323 -6.27949,9.27479 0.93693,5.85726 5.5711,8.34694 10.96342,5.89004 z m 430.20283,-20.34428 c 3.4832,-3.48325 3.2634,-7.8904 -0.5856,-11.73936 -2.5419,-2.54192 -3.566,-2.93914 -6.25,-2.42415 -4.7734,0.91592 -8.0532,5.11516 -7.3551,9.41697 0.8091,4.98606 3.2224,7.20109 7.8456,7.20109 2.7973,0 4.5802,-0.6897 6.3451,-2.45455 z m -20.5455,-15.15366 c 0,-1.87479 -5.9937,-9.59772 -22.0291,-28.3845 -6.3409,-7.42901 -13.0581,-15.42523 -14.927,-17.76938 -3.03564,-3.8075 -3.73551,-4.19879 -6.56176,-3.66858 -1.74003,0.32643 -5.10532,0.0707 -7.47842,-0.56833 l -4.31473,-1.16183 -12.8445,12.81599 c -11.84257,11.81628 -12.8445,13.10502 -12.8445,16.52139 0,2.03798 0.5625,4.05417 1.25,4.48042 1.87518,1.16263 73.82141,19.1543 77.00001,19.25549 1.8963,0.0604 2.75,-0.4117 2.75,-1.52067 z M 965.85163,585.2568 c 7.21026,-7.46626 13.10956,-14.24585 13.10956,-15.06574 0,-3.83952 -1.86134,-5.06899 -8.70903,-5.75259 -7.018,-0.70059 -52.12703,-6.88808 -62.87288,-8.6241 -8.68225,-1.40264 -9.61071,-1.30681 -9.23764,0.95348 0.17575,1.06482 6.43587,8.37732 13.91137,16.25 7.4755,7.87268 15.86112,16.78563 18.6347,19.80655 5.02162,5.46942 5.05738,5.48734 8.47918,4.25 4.38325,-1.585 6.67677,-1.52472 9.7943,0.25742 1.375,0.78602 2.7882,1.44508 3.14044,1.46456 0.35224,0.0195 6.53974,-6.07332 13.75,-13.53958 z m -76.71918,-30.07997 c 1.22806,-1.11137 1.82874,-3.05835 1.82874,-5.92742 0,-3.4245 -0.52293,-4.68376 -2.63486,-6.34501 -4.84506,-3.81112 -11.44338,-1.59336 -12.93441,4.34739 -0.64074,2.55291 1.71141,8.07111 3.79823,8.91074 2.77826,1.11782 8.21335,0.57898 9.9423,-0.9857 z M 820.869,474.73119 c 3.5243,-0.5435 8.5868,-1.45548 11.25,-2.02663 l 4.84219,-1.03847 v -7.76626 c 0,-4.27144 0.28524,-11.14065 0.63387,-15.2649 l 0.63387,-7.49865 9.28397,-9.90223 9.28397,-9.90223 -3.11401,-3.25 c -1.7127,-1.7875 -3.62326,-3.25 -4.24569,-3.25 -1.53257,0 -60.47598,59.49856 -60.47598,61.04557 0,1.37668 20.26971,0.64854 31.90781,-1.1462 z m 22.08016,-66.9532 c 0.007,-0.30461 -1.57053,-2.08771 -3.50476,-3.96244 l -3.51679,-3.40861 -8.73321,8.60206 c -4.80327,4.73114 -9.71613,9.10173 -10.91747,9.71244 -1.29245,0.65703 -7.90302,1.11038 -16.19098,1.11038 -7.99393,0 -14.26471,0.41742 -14.60769,0.97238 -1.45297,2.35095 -4.50827,28.52871 -4.51246,38.66266 l -0.005,11.13504 30.98797,-31.13504 c 17.04339,-17.12427 30.99339,-31.38426 31,-31.68887 z m 17.74709,57.48039 c 47.58084,-15.79456 78.98466,-46.87408 94.21588,-93.24297 2.1108,-6.42597 4.11892,-12.92109 4.46249,-14.43359 l 0.62467,-2.75 h -13.33755 -13.33755 l -8.31384,9.06585 -8.31385,9.06585 3.01235,3.18415 c 5.73441,6.06146 5.78329,6.89882 0.74711,12.79886 -2.47213,2.89616 -4.49477,5.53302 -4.49477,5.85968 0,0.32666 2.475,3.03819 5.5,6.02561 3.025,2.98742 5.5,5.99918 5.5,6.69279 0,0.69361 -1.15337,2.01682 -2.56304,2.94047 -2.5507,1.67128 -2.59191,1.65093 -8.5583,-4.22695 l -5.99526,-5.90631 -2.9417,3.26578 c -1.61794,1.79617 -2.9417,3.83809 -2.9417,4.53759 0,0.6995 2.25,3.48798 5,6.19663 2.75,2.70865 5,5.3563 5,5.88367 0,1.40535 -3.11933,4.61633 -4.48457,4.61633 -0.64603,0 -3.88477,-2.45256 -7.19719,-5.45013 l -6.02258,-5.45012 -3.14783,3.24773 c -1.73131,1.78625 -3.14783,3.69323 -3.14783,4.23772 0,0.54449 2.25,3.20615 5,5.9148 2.75,2.70865 5,5.45438 5,6.10162 0,0.64725 -0.82388,2.19426 -1.83085,3.43781 l -1.83084,2.261 -4.37084,-3.90021 c -2.40396,-2.14512 -5.18008,-4.68772 -6.16915,-5.65022 -2.39442,-2.33008 -2.66479,-2.26444 -7.28739,1.76918 -2.19399,1.91445 -4.55519,3.48082 -5.24712,3.48082 -0.69193,0 -3.00139,-1.575 -5.13213,-3.5 -2.13074,-1.925 -4.56475,-3.5 -5.40889,-3.5 -0.84415,0 -4.95211,3.76408 -9.1288,8.36463 l -7.59399,8.36463 v 12.13537 c 0,14.42399 -1.06323,13.8062 14.73506,8.56193 z m 33.01696,-61.16095 c 10.58861,-10.87109 19.13861,-20.34744 19,-21.05857 -0.13861,-0.71114 -8.98819,-10.00644 -19.66573,-20.65624 -16.28397,-16.24167 -19.66943,-19.17928 -21,-18.22198 -0.87246,0.62772 -10.12772,9.81488 -20.56724,20.41592 l -18.98096,19.27462 19.97158,19.99032 c 10.98437,10.99468 20.4258,19.99734 20.98095,20.00593 0.55516,0.009 9.67279,-8.87892 20.2614,-19.75 z m -33.41285,-6.46438 c -6.78654,-6.70932 -12.33917,-12.86291 -12.33917,-13.67464 0,-0.81174 5.84003,-7.35979 12.97784,-14.55124 l 12.97784,-13.07535 13.02216,12.98557 c 7.16219,7.14207 13.02216,13.27885 13.02216,13.63731 0,0.98658 -25.50422,26.87712 -26.47607,26.87712 -0.46507,0 -6.39821,-5.48945 -13.18476,-12.19877 z m -39.02655,5.38702 8.77093,-8.81175 -4.04178,-4.5917 c -2.22297,-2.52544 -4.04177,-5.22596 -4.04177,-6.00116 0,-0.7752 1.38873,-2.73115 3.08606,-4.34655 5.62913,-5.35741 5.62854,-5.98826 -0.0112,-11.95142 -6.11225,-6.4628 -6.19181,-6.92983 -1.77199,-10.40202 1.63138,-1.2816 2.34885,-0.87609 7.54167,4.26255 l 5.73878,5.67889 3.37862,-3.48586 3.37863,-3.48585 -5.1703,-5.46683 c -5.66615,-5.99112 -6.12576,-7.41189 -3.24196,-10.0217 2.70258,-2.4458 5.0742,-1.37649 10.05928,4.53552 l 4.25993,5.05203 3.37623,-3.27237 c 1.85695,-1.7998 3.37625,-3.80488 3.37625,-4.45573 0,-0.65086 -1.99694,-2.81972 -4.43764,-4.81969 -5.32143,-4.36051 -6.41426,-7.00579 -3.99751,-9.67627 0.95982,-1.06059 2.22483,-1.92834 2.81114,-1.92834 0.58631,0 3.64743,2.55448 6.80249,5.67662 l 5.73647,5.67661 4.99969,-4.67661 c 2.74982,-2.57214 5.47901,-4.67662 6.06486,-4.67662 0.58585,0 3.01607,1.79827 5.40049,3.99615 l 4.33531,3.99614 7.8555,-8.00132 c 4.32052,-4.40073 8.19298,-8.60439 8.60547,-9.34146 0.41249,-0.73708 1.06055,-6.83563 1.44014,-13.55235 l 0.69017,-12.21221 -2.90329,0.70413 c -15.86315,3.84725 -43.19896,16.42201 -55.45707,25.51085 -19.77191,14.65998 -32.86868,30.42912 -43.51991,52.40007 -6.24658,12.88521 -12.42629,29.91804 -12.4263,34.25 -10e-6,2.21109 0.21218,2.25 12.27084,2.25 h 12.27085 z m 99.73955,-46.68825 9.33268,-9.5 h 15.32901 c 14.95909,0 15.35109,-0.0543 16.24364,-2.25 1.3916,-3.42338 3.88313,-22.82672 4.62266,-36 0.56919,-10.13879 0.45108,-11.75 -0.8613,-11.75 -1.41716,0 -60.7878,59.91759 -61.57898,62.14627 -0.44409,1.251 4.79341,6.85373 6.40696,6.85373 0.64495,0 5.37235,-4.275 10.50533,-9.5 z m 37.78116,-65.59866 c 0.44776,-1.21075 -16.5994,-1.11165 -25.33333,0.14727 -3.85,0.55494 -10.91214,1.72356 -15.69364,2.59693 l -8.69364,1.58795 0.19364,15.35496 0.19364,15.35495 -9.96695,10.01396 -9.96695,10.01396 3.8247,3.91685 3.82471,3.91686 30.64225,-31.00117 c 16.85323,-17.05065 30.79224,-31.40678 30.97557,-31.90252 z M 840.46119,1051.9977 c -6.86454,-3.2642 -8.88743,-6.2996 -9.30658,-13.9646 -0.31475,-5.756 -0.0325,-7.195 2.00103,-10.2013 1.30211,-1.925 4.03983,-4.4 6.08381,-5.5 l 3.71634,-2 0.003,-44.47126 0.003,-44.47129 -39.82105,-40.02871 c -21.90157,-22.0158 -41.25157,-41.73188 -43,-43.81352 l -3.17955,-3.78479 v -15.8502 -15.85019 l -2.65535,-1.73985 c -9.24814,-6.05961 -11.59462,-16.26199 -5.59468,-24.32531 9.04415,-12.15442 25.48523,-8.38513 28.70829,6.58168 1.12633,5.2303 -1.06324,10.25773 -6.71157,15.41032 l -5.1049,4.65685 0.22968,14.84315 0.22968,14.84314 42.44943,42.52708 42.44942,42.52708 v 46.65553 c 0,44.06139 0.10015,46.68729 1.80126,47.22719 0.99069,0.3145 3.52899,2.3411 5.64066,4.5037 3.1472,3.2229 3.92511,4.8238 4.31477,8.879 0.61672,6.4184 -0.97156,11.0271 -5.21898,15.1438 -4.37088,4.2365 -10.96718,5.0892 -17.03771,2.2025 z m 12.75,-10.2463 c 3.92944,-4.8078 0.011,-12.3166 -6.33335,-12.1364 -7.11572,0.2022 -10.55047,8.9999 -5.16696,13.2345 3.37666,2.6561 8.85993,2.1326 11.50031,-1.0981 z M 766.50664,800.37727 c 1.54724,-1.54723 2.45455,-3.59708 2.45455,-5.54545 0,-3.76171 -3.87787,-8 -7.31969,-8 -4.02384,0 -7.68031,3.62682 -7.68031,7.61803 0,4.22903 3.71596,8.38197 7.5,8.38197 1.425,0 3.69545,-1.10455 5.04545,-2.45455 z m -73.14919,251.02513 c -4.0185,-1.7493 -7.46281,-6.6479 -8.12015,-11.5487 -0.70475,-5.2543 2.69186,-12.2154 7.28183,-14.9236 l 3.44206,-2.0308 v -13.4009 -13.40081 l -3.84371,-2.54365 c -4.61901,-3.05671 -7.15762,-7.98065 -7.15255,-13.87325 0.0133,-15.50001 21.30218,-20.64718 28.24471,-6.82894 3.49409,6.95456 1.69381,14.10097 -5.09558,20.22747 l -4.15287,3.74739 v 12.99009 12.99 l 3.9715,2.5071 c 4.7999,3.0301 7.0285,7.0149 7.0285,12.5672 0,11.5892 -10.68284,18.2754 -21.60374,13.5214 z m 194.72874,-3.4309 c -1.40064,-0.9293 -1.90421,-5.6938 -0.72628,-6.8718 0.3568,-0.3567 6.24228,-0.5549 13.07886,-0.4403 l 12.43013,0.2085 9.79615,-10.0428 9.79614,-10.0428 -0.34112,-5.9598 c -0.39592,-6.9172 1.98883,-11.8901 7.23635,-15.08996 7.07759,-4.31581 17.36248,-0.96336 20.78564,6.77526 5.37561,12.1525 -4.41489,24.3669 -17.18087,21.4345 l -4.5,-1.0336 -10.76425,10.7115 -10.76425,10.7116 -13.73575,0.276 c -7.55466,0.1518 -14.3545,-0.1345 -15.11075,-0.6363 z m -152.34483,-29.8319 c -0.20352,-4.8443 -0.47223,-16.6828 -0.59713,-26.30778 l -0.22708,-17.5 -38.6837,-38.66108 c -21.27604,-21.26359 -39.0095,-39.48859 -39.4077,-40.5 -0.39819,-1.0114 -0.75562,-31.85352 -0.79427,-68.53803 l -0.0703,-66.69911 -3.55895,-2.71454 c -4.44748,-3.39226 -6.44105,-7.16468 -6.44105,-12.18836 0,-6.45373 1.79295,-9.99323 6.44233,-12.71795 10.0247,-5.87487 21.27125,-0.51714 22.34372,10.64429 0.59657,6.20862 -1.21647,10.1551 -6.37418,13.87478 l -3.46651,2.5 -0.55526,65.90102 -0.55527,65.90101 38.68171,38.65042 c 21.27494,21.25773 39.19952,39.52727 39.8324,40.59898 1.43341,2.42734 2.23316,47.41245 0.93271,52.46445 -0.75489,2.9326 -1.39036,3.5328 -4.01415,3.7919 l -3.11728,0.3077 z m 26.87482,-251.13652 c -3.85229,-4.25673 -0.61076,-7.17126 7.97585,-7.17126 5.6346,0 8.36916,1.41649 8.36916,4.33518 0,3.60485 -1.94166,4.66482 -8.54501,4.66482 -4.6832,0 -6.53871,-0.43503 -7.8,-1.82874 z m 31.59501,1.16646 c -1.59329,-0.64291 -1.62773,-5.55999 -0.05,-7.13772 1.56045,-1.56045 53.97413,-1.71236 56.86574,-0.16482 2.16212,1.15713 2.57138,4.9277 0.73426,6.76482 -0.87923,0.87923 -8.56428,1.1789 -28.75,1.12105 -15.1525,-0.0434 -28.1125,-0.30592 -28.8,-0.58333 z m -32.05,-27.53772 c -0.66,-0.66 -1.2,-1.92 -1.2,-2.8 0,-3.91938 0.94182,-4 46.73138,-4 48.23128,0 46.29791,-0.23715 44.85741,5.50224 l -0.62689,2.49776 h -44.28095 c -33.10741,0 -44.58375,-0.3028 -45.48095,-1.2 z m 0,-27 c -1.56236,-1.56236 -1.53228,-4.27934 0.062,-5.60251 1.418,-1.17683 35.18551,-2.08327 36.29451,-0.97427 1.21595,1.21595 0.74448,5.97191 -0.68155,6.8752 -2.19999,1.39352 -34.25116,1.12542 -35.675,-0.29842 z m 53,0 c -1.54453,-1.54453 -1.54946,-5.46599 -0.008,-6.41862 2.11457,-1.30688 33.34768,-1.69813 35.68539,-0.44703 2.57099,1.37595 2.94519,6.53604 0.54088,7.45866 -3.11224,1.19428 -34.95225,0.67295 -36.21821,-0.59301 z m -38.09372,-25.6821 c -12.4196,-0.53315 -14.54545,-0.86651 -15.5,-2.43055 -0.90036,-1.47524 -0.66684,-2.17327 1.2545,-3.75 2.25212,-1.84817 4.29207,-1.93735 44.31575,-1.93735 27.00826,0 42.64404,0.36879 43.88921,1.03518 1.95515,1.04637 2.6845,5.38311 1.07285,6.37917 -1.36538,0.84385 -59.1439,1.38562 -75.03231,0.70355 z m -14.90628,-27.3179 c -1.83712,-1.83712 -1.42786,-5.60769 0.73426,-6.76482 2.57149,-1.37622 22.92487,-1.32885 26.91652,0.0627 2.24658,0.78316 3.14922,1.72901 3.14922,3.3 0,4.12626 -1.65457,4.60217 -16,4.60217 -9.24444,0 -13.98431,-0.38431 -14.8,-1.2 z m 47.29676,-0.4461 c -1.81853,-1.81853 -1.96495,-5.26801 -0.24676,-5.81358 0.6875,-0.21829 10.55986,-0.6572 21.93858,-0.97534 20.57439,-0.57525 20.6972,-0.56614 22.25,1.65079 1.94879,2.7823 1.94488,3.25792 -0.0432,5.24601 -2.3022,2.3022 -41.58506,2.20566 -43.8986,-0.10788 z m -15.49676,-25.30337 -11.5,-0.55053 v -3.5 -3.5 l 35.38195,-0.26294 c 25.2811,-0.18787 35.77249,0.0612 36.75,0.87245 2.34217,1.94383 1.67032,5.82507 -1.19705,6.91524 -2.64026,1.00382 -38.67825,1.01946 -59.4349,0.0258 z m 21.46862,-27.55053 c -0.25774,-0.825 -0.65199,-2.10331 -0.8761,-2.84068 -0.81124,-2.66912 1.27854,-4.0814 5.59009,-3.7778 2.00191,0.14096 3.20577,3.31945 2.31739,6.11848 -0.77607,2.44519 -6.30095,2.83807 -7.03138,0.5 z m 20.49549,-0.56706 c -0.86054,-1.60793 -0.75218,-2.60745 0.48787,-4.5 l 1.59413,-2.43294 h 25.04268 c 25.74338,0 28.91121,0.43318 28.91121,3.9534 0,5.18337 0.76078,5.0466 -28.07181,5.0466 -26.1248,0 -26.88802,-0.0564 -27.96408,-2.06706 z M 686.10203,582.50153 c -0.84342,-1.01627 -1.10862,-6.61388 -0.9144,-19.30056 l 0.27356,-17.86915 2.5856,-0.30056 c 4.60356,-0.53513 4.98358,1.12112 4.68796,20.43141 l -0.27356,17.86915 -2.5856,0.30056 c -1.42207,0.1653 -3.12018,-0.34358 -3.77356,-1.13085 z"
       id="path1" />
  </g>
</svg>
